<?xml version="1.0" standalone="no"?>
<!DOCTYPE svg PUBLIC "-//W3C//DTD SVG 20010904//EN"
 "http://www.w3.org/TR/2001/REC-SVG-20010904/DTD/svg10.dtd">
<svg version="1.0" xmlns="http://www.w3.org/2000/svg"
 width="1280.000000pt" height="640.000000pt" viewBox="0 0 1280.000000 640.000000"
 preserveAspectRatio="xMidYMid meet">
<metadata>
Created by potrace 1.15, written by Peter Selinger 2001-2017
</metadata>
<g transform="translate(0.000000,640.000000) scale(0.100000,-0.100000)"
fill="#000000" stroke="none">
<path d="M1208 4460 c-159 -25 -302 -102 -434 -234 -98 -98 -173 -209 -224
-332 -36 -88 -77 -247 -85 -334 -3 -36 -8 -84 -11 -108 l-5 -42 -25 29 c-29
34 -118 71 -172 71 -47 0 -124 -23 -167 -50 -20 -12 -44 -42 -59 -72 -81 -163
42 -358 225 -358 71 0 122 19 167 62 l32 32 0 -65 c0 -197 50 -419 128 -574
151 -301 459 -518 767 -541 100 -8 181 7 263 47 l63 31 477 14 c262 7 632 18
822 24 1546 46 1815 52 1830 42 10 -6 23 -7 31 -2 22 14 94 19 359 25 207 5
2551 71 3725 105 193 6 661 19 1040 30 1726 50 1733 50 1777 66 76 26 231 36
399 25 85 -6 170 -15 189 -21 134 -39 261 20 343 161 157 268 181 839 51 1229
-58 176 -143 297 -245 351 -40 22 -56 24 -164 23 -66 -1 -169 -9 -228 -18
-133 -20 -251 -20 -337 -1 -127 28 -220 34 -680 45 -256 6 -973 24 -1595 40
-621 16 -1485 39 -1920 50 -434 11 -1107 29 -1495 40 -388 10 -824 21 -970 24
-146 3 -425 10 -620 16 -195 5 -539 14 -765 20 -225 6 -570 15 -765 20 -195 5
-562 15 -815 21 -455 11 -460 11 -501 35 -108 62 -281 93 -406 74z"/>
</g>
</svg>
